#N canvas 0 96 1920 984 12;
#X obj 159 84 tgl 15 0 empty empty empty 17 7 0 10 -262144 -1 -1 1
1;
#X obj 159 123 metro 10000;
#X obj 159 179 bng 15 250 50 0 empty empty empty 17 7 0 10 -262144
-1 -1;
#X obj 32 265 phasor~;
#X text 246 113 sends a bang every 10000 milliseconds (10 seconds)
;
#X text 182 155 bang/button (shift+ctrl+5);
#X text 180 72 toggle (shift+ctrl+t);
#X text 16 215 phasor object (sawtooth oscillator), f 17;
#X obj 32 302 lop~ 6000;
#X obj 32 343 *~;
#X obj 43 939 dac~;
#X floatatom 32 143 5 0 0 0 - - -;
#X obj 32 170 mtof;
#X floatatom 32 197 5 0 0 0 - - -;
#X obj 159 296 line 0 3;
#X floatatom 159 324 5 0 0 0 - - -;
#X msg 159 251 0.3 300;
#X msg 237 251 0 700;
#X obj 43 902 catch~ out;
#X obj 31 376 throw~ out;
#X floatatom 298 79 5 0 0 0 - - -;
#X text 355 76 controlling the length of the metro loop;
#X floatatom 305 175 5 0 0 0 - - -;
#X obj 643 89 tgl 15 0 empty empty empty 17 7 0 10 -262144 -1 -1 1
1;
#X obj 643 128 metro 10000;
#X obj 643 184 bng 15 250 50 0 empty empty empty 17 7 0 10 -262144
-1 -1;
#X obj 516 270 phasor~;
#X text 730 118 sends a bang every 10000 milliseconds (10 seconds)
;
#X text 666 160 bang/button (shift+ctrl+5);
#X text 664 77 toggle (shift+ctrl+t);
#X text 500 220 phasor object (sawtooth oscillator), f 17;
#X obj 516 307 lop~ 6000;
#X obj 516 348 *~;
#X floatatom 516 145 5 0 0 0 - - -;
#X obj 516 175 mtof;
#X floatatom 516 202 5 0 0 0 - - -;
#X obj 643 301 line 0 3;
#X floatatom 643 329 5 0 0 0 - - -;
#X msg 643 256 0.3 300;
#X msg 721 256 0 700;
#X obj 515 381 throw~ out;
#X floatatom 781 90 5 0 0 0 - - -;
#X text 839 81 controlling the length of the metro loop;
#X floatatom 789 180 5 0 0 0 - - -;
#X obj 237 202 delay 6000;
#X obj 721 207 delay 8000;
#X obj 1102 102 tgl 15 0 empty empty empty 17 7 0 10 -262144 -1 -1
1 1;
#X obj 1102 141 metro 10000;
#X obj 1102 197 bng 15 250 50 0 empty empty empty 17 7 0 10 -262144
-1 -1;
#X obj 975 283 phasor~;
#X text 1189 131 sends a bang every 10000 milliseconds (10 seconds)
;
#X text 1125 173 bang/button (shift+ctrl+5);
#X text 1123 90 toggle (shift+ctrl+t);
#X text 959 233 phasor object (sawtooth oscillator), f 17;
#X obj 975 320 lop~ 6000;
#X obj 975 361 *~;
#X floatatom 974 160 5 0 0 0 - - -;
#X obj 975 188 mtof;
#X floatatom 975 215 5 0 0 0 - - -;
#X obj 1102 314 line 0 3;
#X floatatom 1102 342 5 0 0 0 - - -;
#X msg 1102 269 0.3 300;
#X msg 1180 269 0 700;
#X obj 974 394 throw~ out;
#X floatatom 1240 97 5 0 0 0 - - -;
#X text 1298 94 controlling the length of the metro loop;
#X floatatom 1248 193 5 0 0 0 - - -;
#X obj 1180 220 delay 6000;
#X connect 0 0 1 0;
#X connect 1 0 2 0;
#X connect 2 0 16 0;
#X connect 2 0 44 0;
#X connect 3 0 8 0;
#X connect 8 0 9 0;
#X connect 9 0 19 0;
#X connect 11 0 12 0;
#X connect 12 0 13 0;
#X connect 13 0 3 0;
#X connect 14 0 15 0;
#X connect 15 0 9 1;
#X connect 16 0 14 0;
#X connect 17 0 14 0;
#X connect 18 0 10 0;
#X connect 18 0 10 1;
#X connect 20 0 1 1;
#X connect 22 0 44 1;
#X connect 23 0 24 0;
#X connect 24 0 25 0;
#X connect 25 0 38 0;
#X connect 25 0 45 0;
#X connect 26 0 31 0;
#X connect 31 0 32 0;
#X connect 32 0 40 0;
#X connect 33 0 34 0;
#X connect 34 0 35 0;
#X connect 35 0 26 0;
#X connect 36 0 37 0;
#X connect 37 0 32 1;
#X connect 38 0 36 0;
#X connect 39 0 36 0;
#X connect 41 0 24 1;
#X connect 43 0 45 1;
#X connect 44 0 17 0;
#X connect 45 0 39 0;
#X connect 46 0 47 0;
#X connect 47 0 48 0;
#X connect 48 0 61 0;
#X connect 48 0 67 0;
#X connect 49 0 54 0;
#X connect 54 0 55 0;
#X connect 55 0 63 0;
#X connect 56 0 57 0;
#X connect 57 0 58 0;
#X connect 58 0 49 0;
#X connect 59 0 60 0;
#X connect 60 0 55 1;
#X connect 61 0 59 0;
#X connect 62 0 59 0;
#X connect 64 0 47 1;
#X connect 66 0 67 1;
#X connect 67 0 62 0;
